# xmcd
#
# Track frame offsets:
#	150
#	19326
#	36940
#	50842
#	67713
#	84097
#	110192
#	132668
#	155259
#	170842
#	198650
#
# Disc length: 2966 seconds
#
# Revision: 1
# Processed by: cddbd v1.5.2PL0 Copyright (c) Steve Scherf et al.
# Submitted via: audiograbber 1.83.01
#
DISCID=9c0b940b
DTITLE=Phil Smith - Goldmine Phil Smith
DYEAR=2009
DGENRE=Country
TTITLE0=Goldmine
TTITLE1=Annie
TTITLE2=Blackbird
TTITLE3=I´ll Walk The Line (one More Time)
TTITLE4=Baby Doll
TTITLE5=Everybody´s Going Somewhere
TTITLE6=Where Does It Go
TTITLE7=The Grave Of Magaritis
TTITLE8=One More For The Road
TTITLE9=Home Around Three
TTITLE10=Mary
EXTD=
EXTT0=
EXTT1=
EXTT2=
EXTT3=
EXTT4=
EXTT5=
EXTT6=
EXTT7=
EXTT8=
EXTT9=
EXTT10=
PLAYORDER=
